<svg width="0" height="0" class="hidden">
  <symbol fill="none" xmlns="http://www.w3.org/2000/svg" viewBox="0 0 24 24" id="user">
    <rect width="24" height="24" fill="none"></rect>
    <path fill-rule="evenodd" clip-rule="evenodd" d="M6 8C6 4.68629 8.68629 2 12 2C15.3137 2 18 4.68629 18 8C18 11.3137 15.3137 14 12 14C8.68629 14 6 11.3137 6 8Z" fill="#323232"></path>
    <path fill-rule="evenodd" clip-rule="evenodd" d="M5.43094 16.9025C7.05587 16.2213 9.2233 16 12 16C14.771 16 16.9351 16.2204 18.5586 16.8981C20.3012 17.6255 21.3708 18.8613 21.941 20.6587C22.1528 21.3267 21.6518 22 20.9592 22H3.03459C2.34482 22 1.84679 21.3297 2.0569 20.6654C2.62537 18.8681 3.69119 17.6318 5.43094 16.9025Z" fill="#323232"></path>
  </symbol>
  <symbol fill="none" xmlns="http://www.w3.org/2000/svg" viewBox="0 0 24 24" id="arrow-up">
    <path d="M12 8L12 16" stroke="#323232" stroke-width="2" stroke-linecap="round" stroke-linejoin="round"></path>
    <path d="M15 11L12.087 8.08704V8.08704C12.039 8.03897 11.961 8.03897 11.913 8.08704V8.08704L9 11" stroke="#323232" stroke-width="2" stroke-linecap="round" stroke-linejoin="round"></path>
  </symbol>
  <symbol fill="none" xmlns="http://www.w3.org/2000/svg" viewBox="0 0 24 24" id="arrow-down">
    <path d="M12 16L12 8" stroke="#323232" stroke-width="2" stroke-linecap="round" stroke-linejoin="round"></path>
    <path d="M9 13L11.913 15.913V15.913C11.961 15.961 12.039 15.961 12.087 15.913V15.913L15 13" stroke="#323232" stroke-width="2" stroke-linecap="round" stroke-linejoin="round"></path>
  </symbol>
</svg>
